<svg width="75" height="75" viewBox="0 0 75 75" fill="none" xmlns="http://www.w3.org/2000/svg">
<path d="M58.75 37.5C58.75 50.25 49.4213 58.75 37.9123 58.75C28.558 58.75 21.01 53.7881 18.375 46" stroke="black" stroke-width="1.5" stroke-linecap="round" stroke-linejoin="round"/>
<path d="M16.25 37.5C16.25 24.75 25.5788 16.25 37.0878 16.25C46.4441 16.25 53.99 21.2119 56.625 29" stroke="black" stroke-width="1.5" stroke-linecap="round" stroke-linejoin="round"/>
<path d="M26.875 48.125L18.375 46L16.25 54.5" stroke="black" stroke-width="1.5" stroke-linecap="round" stroke-linejoin="round"/>
<path d="M48.125 26.875L56.625 29L58.75 20.5" stroke="black" stroke-width="1.5" stroke-linecap="round" stroke-linejoin="round"/>
<path fill-rule="evenodd" clip-rule="evenodd" d="M39.3726 26.8364C40.131 26.8364 40.7454 27.4508 40.7454 28.2092V28.2103C40.7454 28.8345 41.1738 29.3711 41.7569 29.6015C41.8488 29.6381 41.9401 29.6764 42.0306 29.7162C42.6061 29.9661 43.2877 29.8903 43.7312 29.4468C43.9887 29.1895 44.3377 29.045 44.7016 29.045C45.0656 29.045 45.4146 29.1895 45.672 29.4468L46.7906 30.5654C47.0479 30.8228 47.1924 31.1719 47.1924 31.5358C47.1924 31.8997 47.0479 32.2487 46.7906 32.5062C46.3482 32.9497 46.2724 33.6323 46.5212 34.2068C46.5607 34.2973 46.5986 34.3886 46.6348 34.4805C46.8653 35.0636 47.4018 35.492 48.0271 35.492C48.7855 35.492 49.4 36.1065 49.4 36.8648V38.4454C49.4 39.2037 48.7855 39.8182 48.0271 39.8182C47.4018 39.8182 46.8653 40.2466 46.6359 40.8297C46.5991 40.9216 46.5613 41.0136 46.5212 41.1034C46.2713 41.6789 46.3471 42.3605 46.7906 42.804C47.0479 43.0614 47.1924 43.4105 47.1924 43.7744C47.1924 44.1383 47.0479 44.4874 46.7906 44.7448L45.672 45.8634C45.5445 45.9909 45.3932 46.0921 45.2266 46.1611C45.06 46.2301 44.8814 46.2657 44.7011 46.2657C44.5208 46.2657 44.3422 46.2301 44.1756 46.1611C44.009 46.0921 43.8576 45.9909 43.7302 45.8634C43.2877 45.4209 42.6051 45.3441 42.0306 45.5951C41.9408 45.634 41.8489 45.6719 41.7569 45.7076C41.1738 45.938 40.7454 46.4746 40.7454 47.0999C40.7454 47.8583 40.131 48.4727 39.3726 48.4727H37.791C37.0326 48.4727 36.4182 47.8583 36.4182 47.0999C36.4182 46.4746 35.9898 45.938 35.4067 45.7087C35.3147 45.6719 35.2227 45.634 35.133 45.594C34.5574 45.3441 33.8759 45.4198 33.4323 45.8634C33.1749 46.1206 32.8259 46.2651 32.4619 46.2651C32.098 46.2651 31.749 46.1206 31.4916 45.8634L30.373 44.7448C30.1157 44.4874 29.9712 44.1383 29.9712 43.7744C29.9712 43.4105 30.1157 43.0614 30.373 42.804C30.8154 42.3605 30.8911 41.6778 30.6412 41.1034L30.633 41.0838C30.5977 41.0003 30.5618 40.915 30.5277 40.8297C30.2983 40.2466 29.7617 39.8182 29.1364 39.8182C28.3781 39.8182 27.7636 39.2037 27.7636 38.4454V36.8637C27.7636 36.1054 28.3781 35.4909 29.1364 35.4909C29.7617 35.4909 30.2983 35.0625 30.5277 34.4794C30.5639 34.3875 30.6018 34.2963 30.6412 34.2057C30.8922 33.6302 30.8165 32.9486 30.373 32.5051C30.1157 32.2477 29.9712 31.8986 29.9712 31.5347C29.9712 31.1708 30.1157 30.8217 30.373 30.5643L31.4916 29.4457C31.749 29.1885 32.098 29.044 32.4619 29.044C32.8259 29.044 33.1749 29.1885 33.4323 29.4457C33.8759 29.8882 34.5585 29.9639 35.133 29.7151C35.2227 29.6761 35.3147 29.6372 35.4067 29.6004C35.9898 29.3711 36.4182 28.8345 36.4182 28.2092C36.4182 27.4508 37.0326 26.8364 37.7921 26.8364H39.3726ZM41.6416 40.7144C42.4532 39.9029 42.9091 38.8022 42.9091 37.6545C42.9091 36.5069 42.4532 35.4062 41.6416 34.5947C40.8301 33.7832 39.7295 33.3273 38.5818 33.3273C37.4341 33.3273 36.3335 33.7832 35.5219 34.5947C34.7104 35.4062 34.2545 36.5069 34.2545 37.6545C34.2545 38.8022 34.7104 39.9029 35.5219 40.7144C36.3335 41.5259 37.4341 41.9818 38.5818 41.9818C39.7295 41.9818 40.8301 41.5259 41.6416 40.7144Z" fill="black"/>
<path d="M41.7569 29.6015L42.1273 28.6726L42.1244 28.6715L41.7569 29.6015ZM42.0306 29.7162L41.6283 30.6317L41.6323 30.6334L42.0306 29.7162ZM43.7312 29.4468L43.0244 28.7394L43.0241 28.7397L43.7312 29.4468ZM45.672 29.4468L46.3791 28.7397L46.3789 28.7394L45.672 29.4468ZM46.7906 30.5654L47.498 29.8585L47.4977 29.8583L46.7906 30.5654ZM46.7906 32.5062L46.0833 31.7993L46.0827 31.7999L46.7906 32.5062ZM46.5212 34.2068L45.6036 34.6043L45.6045 34.6064L46.5212 34.2068ZM46.6348 34.4805L45.7046 34.8474L45.7048 34.848L46.6348 34.4805ZM46.6359 40.8297L47.5644 41.2011L47.5665 41.1957L46.6359 40.8297ZM46.5212 41.1034L45.6079 40.6962L45.604 40.7051L46.5212 41.1034ZM46.7906 42.804L47.498 42.0971L47.4977 42.0969L46.7906 42.804ZM46.7906 44.7448L47.4977 45.4519L47.498 45.4516L46.7906 44.7448ZM45.672 45.8634L44.9649 45.1563L44.9648 45.1564L45.672 45.8634ZM43.7302 45.8634L44.4374 45.1564L44.4373 45.1563L43.7302 45.8634ZM42.0306 45.5951L42.4285 46.5125L42.431 46.5114L42.0306 45.5951ZM41.7569 45.7076L41.395 44.7754L41.3894 44.7776L41.7569 45.7076ZM35.4067 45.7087L35.0353 46.6372L35.0406 46.6393L35.4067 45.7087ZM35.133 45.594L35.5401 44.6806L35.5312 44.6767L35.133 45.594ZM33.4323 45.8634L34.1392 46.5707L34.1394 46.5705L33.4323 45.8634ZM31.4916 45.8634L30.7844 46.5705L30.7847 46.5707L31.4916 45.8634ZM30.373 44.7448L29.6656 45.4516L29.6658 45.4519L30.373 44.7448ZM30.373 42.804L31.0803 43.5109L31.0809 43.5102L30.373 42.804ZM30.6412 41.1034L29.7198 41.492L29.7243 41.5023L30.6412 41.1034ZM30.633 41.0838L31.5544 40.6952L31.5544 40.6952L30.633 41.0838ZM30.5277 40.8297L29.597 41.1957L29.5992 41.2011L30.5277 40.8297ZM30.5277 34.4794L29.5976 34.1121L29.5971 34.1134L30.5277 34.4794ZM30.6412 34.2057L29.7246 33.806L29.7244 33.8065L30.6412 34.2057ZM30.373 32.5051L29.6656 33.2119L29.6658 33.2122L30.373 32.5051ZM30.373 30.5643L29.6658 29.8572L29.6656 29.8575L30.373 30.5643ZM31.4916 29.4457L30.7847 28.7384L30.7844 28.7386L31.4916 29.4457ZM33.4323 29.4457L32.7255 30.1531L32.7261 30.1537L33.4323 29.4457ZM35.133 29.7151L35.5304 30.6327L35.5309 30.6325L35.133 29.7151ZM35.4067 29.6004L35.0406 28.6698L35.0353 28.6719L35.4067 29.6004ZM41.6416 40.7144L42.3487 41.4215H42.3487L41.6416 40.7144ZM41.6416 34.5947L42.3487 33.8876H42.3487L41.6416 34.5947ZM35.5219 34.5947L36.2291 35.3018L35.5219 34.5947ZM35.5219 40.7144L34.8148 41.4215H34.8148L35.5219 40.7144ZM41.7454 28.2092C41.7454 26.8986 40.6832 25.8364 39.3726 25.8364V27.8364C39.5787 27.8364 39.7454 28.0031 39.7454 28.2092H41.7454ZM41.7454 28.2103V28.2092H39.7454V28.2103H41.7454ZM42.1244 28.6715C41.8545 28.5648 41.7454 28.355 41.7454 28.2103H39.7454C39.7454 29.314 40.4932 30.1773 41.3894 30.5315L42.1244 28.6715ZM42.433 28.8007C42.3318 28.7562 42.2299 28.7135 42.1273 28.6726L41.3865 30.5304C41.4677 30.5627 41.5483 30.5965 41.6283 30.6317L42.433 28.8007ZM43.0241 28.7397C42.9195 28.8443 42.695 28.9144 42.4289 28.7989L41.6323 30.6334C42.5173 31.0177 43.6559 30.9364 44.4383 30.1539L43.0241 28.7397ZM44.7016 28.045C44.0726 28.045 43.4693 28.2948 43.0244 28.7394L44.4381 30.1542C44.508 30.0843 44.6028 30.045 44.7016 30.045V28.045ZM46.3789 28.7394C45.9339 28.2948 45.3306 28.045 44.7016 28.045V30.045C44.8005 30.045 44.8953 30.0843 44.9652 30.1541L46.3789 28.7394ZM47.4977 29.8583L46.3791 28.7397L44.9649 30.1539L46.0835 31.2725L47.4977 29.8583ZM48.1924 31.5358C48.1924 30.9068 47.9426 30.3035 47.498 29.8585L46.0833 31.2722C46.1531 31.3422 46.1924 31.437 46.1924 31.5358H48.1924ZM47.498 33.213C47.9426 32.7681 48.1924 32.1648 48.1924 31.5358H46.1924C46.1924 31.6346 46.1531 31.7294 46.0833 31.7993L47.498 33.213ZM47.4389 33.8093C47.3239 33.544 47.3939 33.3173 47.4986 33.2124L46.0827 31.7999C45.3024 32.5821 45.2209 33.7207 45.6036 34.6043L47.4389 33.8093ZM47.5651 34.1135C47.5245 34.0107 47.4821 33.9086 47.438 33.8072L45.6045 34.6064C45.6393 34.6861 45.6727 34.7665 45.7046 34.8474L47.5651 34.1135ZM48.0271 34.492C47.8809 34.492 47.6714 34.3825 47.5649 34.113L45.7048 34.848C46.0592 35.7447 46.9228 36.492 48.0271 36.492V34.492ZM50.4 36.8648C50.4 35.5542 49.3378 34.492 48.0271 34.492V36.492C48.2332 36.492 48.4 36.6587 48.4 36.8648H50.4ZM50.4 38.4454V36.8648H48.4V38.4454H50.4ZM48.0271 40.8182C49.3378 40.8182 50.4 39.756 50.4 38.4454H48.4C48.4 38.6514 48.2332 38.8182 48.0271 38.8182V40.8182ZM47.5665 41.1957C47.6719 40.9277 47.8808 40.8182 48.0271 40.8182V38.8182C46.9229 38.8182 46.0586 39.5654 45.7053 40.4637L47.5665 41.1957ZM47.4346 41.5105C47.4822 41.4039 47.5254 41.2985 47.5644 41.2011L45.7074 40.4583C45.6729 40.5448 45.6404 40.6233 45.6079 40.6962L47.4346 41.5105ZM47.4977 42.0969C47.3931 41.9923 47.323 41.7677 47.4385 41.5017L45.604 40.7051C45.2197 41.5901 45.3011 42.7286 46.0835 43.5111L47.4977 42.0969ZM48.1924 43.7744C48.1924 43.1454 47.9426 42.5421 47.498 42.0971L46.0833 43.5109C46.1531 43.5808 46.1924 43.6756 46.1924 43.7744H48.1924ZM47.498 45.4516C47.9426 45.0067 48.1924 44.4034 48.1924 43.7744H46.1924C46.1924 43.8732 46.1531 43.968 46.0833 44.0379L47.498 45.4516ZM46.3791 46.5705L47.4977 45.4519L46.0835 44.0377L44.9649 45.1563L46.3791 46.5705ZM45.6094 47.085C45.8973 46.9657 46.1589 46.7908 46.3793 46.5703L44.9648 45.1564C44.9301 45.1911 44.889 45.2185 44.8438 45.2373L45.6094 47.085ZM44.7011 47.2657C45.0128 47.2657 45.3214 47.2043 45.6094 47.085L44.8438 45.2373C44.7986 45.256 44.7501 45.2657 44.7011 45.2657V47.2657ZM43.7928 47.085C44.0808 47.2043 44.3894 47.2657 44.7011 47.2657V45.2657C44.6521 45.2657 44.6036 45.256 44.5584 45.2373L43.7928 47.085ZM43.0229 46.5703C43.2433 46.7908 43.5049 46.9657 43.7928 47.085L44.5584 45.2373C44.5131 45.2185 44.472 45.1911 44.4374 45.1564L43.0229 46.5703ZM42.431 46.5114C42.6938 46.3966 42.9189 46.4664 43.0231 46.5705L44.4373 45.1563C43.6565 44.3755 42.5164 44.2916 41.6303 44.6787L42.431 46.5114ZM42.1188 46.6398C42.2233 46.5992 42.3273 46.5564 42.4285 46.5125L41.6327 44.6777C41.5544 44.7117 41.4744 44.7446 41.395 44.7754L42.1188 46.6398ZM41.7454 47.0999C41.7454 46.9537 41.8549 46.7441 42.1244 46.6376L41.3894 44.7776C40.4927 45.1319 39.7454 45.9955 39.7454 47.0999H41.7454ZM39.3726 49.4727C40.6832 49.4727 41.7454 48.4105 41.7454 47.0999H39.7454C39.7454 47.306 39.5787 47.4727 39.3726 47.4727V49.4727ZM37.791 49.4727H39.3726V47.4727H37.791V49.4727ZM35.4182 47.0999C35.4182 48.4105 36.4803 49.4727 37.791 49.4727V47.4727C37.5849 47.4727 37.4182 47.306 37.4182 47.0999H35.4182ZM35.0406 46.6393C35.3086 46.7447 35.4182 46.9535 35.4182 47.0999H37.4182C37.4182 45.9957 36.6709 45.1314 35.7727 44.7781L35.0406 46.6393ZM34.7258 46.5074C34.8325 46.5549 34.9378 46.5982 35.0353 46.6372L35.778 44.7802C35.6916 44.7456 35.613 44.7132 35.5401 44.6807L34.7258 46.5074ZM34.1394 46.5705C34.2441 46.4659 34.4686 46.3958 34.7347 46.5113L35.5312 44.6767C34.6462 44.2925 33.5077 44.3738 32.7252 45.1563L34.1394 46.5705ZM32.4619 47.2651C33.091 47.2651 33.6943 47.0154 34.1392 46.5707L32.7255 45.156C32.6556 45.2259 32.5608 45.2651 32.4619 45.2651V47.2651ZM30.7847 46.5707C31.2296 47.0154 31.8329 47.2651 32.4619 47.2651V45.2651C32.3631 45.2651 32.2683 45.2259 32.1984 45.156L30.7847 46.5707ZM29.6658 45.4519L30.7844 46.5705L32.1987 45.1563L31.0801 44.0377L29.6658 45.4519ZM28.9712 43.7744C28.9712 44.4034 29.221 45.0067 29.6656 45.4516L31.0803 44.0379C31.0105 43.968 30.9712 43.8732 30.9712 43.7744H28.9712ZM29.6656 42.0971C29.221 42.5421 28.9712 43.1454 28.9712 43.7744H30.9712C30.9712 43.6756 31.0105 43.5808 31.0803 43.5109L29.6656 42.0971ZM29.7243 41.5023C29.8393 41.7668 29.7696 41.9929 29.665 42.0978L31.0809 43.5102C31.8613 42.728 31.943 41.5888 31.5582 40.7045L29.7243 41.5023ZM29.7116 41.4724L29.7199 41.492L31.5626 40.7148L31.5544 40.6952L29.7116 41.4724ZM29.5992 41.2011C29.6373 41.2965 29.677 41.3904 29.7116 41.4725L31.5544 40.6952C31.5185 40.6102 31.4862 40.5335 31.4561 40.4583L29.5992 41.2011ZM29.1364 40.8182C29.2828 40.8182 29.4917 40.9277 29.5971 41.1957L31.4583 40.4637C31.105 39.5654 30.2406 38.8182 29.1364 38.8182V40.8182ZM26.7636 38.4454C26.7636 39.756 27.8258 40.8182 29.1364 40.8182V38.8182C28.9304 38.8182 28.7636 38.6514 28.7636 38.4454H26.7636ZM26.7636 36.8637V38.4454H28.7636V36.8637H26.7636ZM29.1364 34.4909C27.8258 34.4909 26.7636 35.5531 26.7636 36.8637H28.7636C28.7636 36.6577 28.9304 36.4909 29.1364 36.4909V34.4909ZM29.5971 34.1134C29.4917 34.3814 29.2828 34.4909 29.1364 34.4909V36.4909C30.2406 36.4909 31.105 35.7437 31.4583 34.8454L29.5971 34.1134ZM29.7244 33.8065C29.6804 33.9076 29.6381 34.0095 29.5976 34.1121L31.4577 34.8468C31.4898 34.7656 31.5233 34.6849 31.5581 34.6049L29.7244 33.8065ZM29.6658 33.2122C29.7704 33.3168 29.8403 33.5408 29.7246 33.806L31.5579 34.6054C31.9442 33.7196 31.8626 32.5805 31.0801 31.798L29.6658 33.2122ZM28.9712 31.5347C28.9712 32.1637 29.221 32.767 29.6656 33.2119L31.0803 31.7982C31.0105 31.7283 30.9712 31.6335 30.9712 31.5347H28.9712ZM29.6656 29.8575C29.221 30.3024 28.9712 30.9057 28.9712 31.5347H30.9712C30.9712 31.4359 31.0105 31.3411 31.0803 31.2712L29.6656 29.8575ZM30.7844 28.7386L29.6658 29.8572L31.0801 31.2714L32.1987 30.1528L30.7844 28.7386ZM32.4619 28.044C31.8329 28.044 31.2296 28.2937 30.7847 28.7384L32.1984 30.1531C32.2683 30.0832 32.3631 30.044 32.4619 30.044V28.044ZM34.1392 28.7384C33.6942 28.2937 33.091 28.044 32.4619 28.044V30.044C32.5608 30.044 32.6556 30.0832 32.7255 30.1531L34.1392 28.7384ZM34.7355 28.7975C34.4701 28.9124 34.2435 28.8424 34.1386 28.7377L32.7261 30.1537C33.5083 30.934 34.6469 31.0154 35.5304 30.6327L34.7355 28.7975ZM35.0353 28.6719C34.9312 28.7135 34.8298 28.7566 34.735 28.7977L35.5309 30.6325C35.6157 30.5957 35.6982 30.5608 35.778 30.5289L35.0353 28.6719ZM35.4182 28.2092C35.4182 28.3556 35.3086 28.5644 35.0406 28.6698L35.7727 30.531C36.6709 30.1777 37.4182 29.3134 37.4182 28.2092H35.4182ZM37.7921 25.8364C36.4809 25.8364 35.4182 26.898 35.4182 28.2092H37.4182C37.4182 28.0036 37.5844 27.8364 37.7921 27.8364V25.8364ZM39.3726 25.8364H37.7921V27.8364H39.3726V25.8364ZM41.9091 37.6545C41.9091 38.537 41.5585 39.3833 40.9345 40.0073L42.3487 41.4215C43.3478 40.4224 43.9091 39.0674 43.9091 37.6545H41.9091ZM40.9345 35.3018C41.5585 35.9258 41.9091 36.7721 41.9091 37.6545H43.9091C43.9091 36.2417 43.3478 34.8867 42.3487 33.8876L40.9345 35.3018ZM38.5818 34.3273C39.4642 34.3273 40.3105 34.6778 40.9345 35.3018L42.3487 33.8876C41.3497 32.8885 39.9947 32.3273 38.5818 32.3273V34.3273ZM36.2291 35.3018C36.853 34.6778 37.6993 34.3273 38.5818 34.3273V32.3273C37.1689 32.3273 35.8139 32.8885 34.8148 33.8876L36.2291 35.3018ZM35.2545 37.6545C35.2545 36.7721 35.6051 35.9258 36.2291 35.3018L34.8148 33.8876C33.8158 34.8867 33.2545 36.2417 33.2545 37.6545H35.2545ZM36.2291 40.0073C35.6051 39.3833 35.2545 38.537 35.2545 37.6545H33.2545C33.2545 39.0674 33.8158 40.4224 34.8148 41.4215L36.2291 40.0073ZM38.5818 40.9818C37.6993 40.9818 36.853 40.6313 36.2291 40.0073L34.8148 41.4215C35.8139 42.4206 37.1689 42.9818 38.5818 42.9818V40.9818ZM40.9345 40.0073C40.3105 40.6313 39.4642 40.9818 38.5818 40.9818V42.9818C39.9947 42.9818 41.3497 42.4206 42.3487 41.4215L40.9345 40.0073Z" fill="black"/>
</svg>
