<svg width="75" height="75" viewBox="0 0 75 75" fill="none" xmlns="http://www.w3.org/2000/svg">
<path d="M37.9865 44.5538C39.0587 44.5538 40.1068 44.2436 40.9984 43.6623C41.8899 43.0811 42.5847 42.2549 42.995 41.2884C43.4054 40.3218 43.5127 39.2582 43.3035 38.2321C43.0944 37.206 42.578 36.2634 41.8199 35.5236C41.0617 34.7839 40.0957 34.2801 39.0441 34.0759C37.9925 33.8718 36.9025 33.9766 35.9119 34.377C34.9213 34.7773 34.0746 35.4553 33.4789 36.3252C32.8832 37.1951 32.5653 38.2178 32.5653 39.2641C32.5653 40.667 33.1364 42.0125 34.1531 43.0045C35.1698 43.9965 36.5487 44.5538 37.9865 44.5538Z" fill="black"/>
<path d="M31.2781 49.91C33.0572 48.174 35.4703 47.1987 37.9865 47.1987C40.5026 47.1987 42.9157 48.174 44.6949 49.91C46.4741 51.6461 47.4736 54.0006 47.4736 56.4558C47.4736 56.8065 47.3308 57.1429 47.0767 57.3909C46.8897 57.5733 46.6537 57.697 46.3989 57.7496C46.2465 57.8438 46.0657 57.8984 45.8719 57.8984H29.6082C29.0902 57.8984 28.6656 57.5086 28.6256 57.0132C28.5432 56.8402 28.4993 56.6502 28.4993 56.4558C28.4993 54.0006 29.4989 51.6461 31.2781 49.91Z" fill="black"/>
<path d="M34.2742 15C33.363 15 32.6242 15.7387 32.6242 16.6499V27.3096C32.4769 27.3559 32.3302 27.4043 32.1842 27.4548L25.057 20.3276C24.4126 19.6833 23.3679 19.6833 22.7236 20.3276L18.0569 24.9943C17.4125 25.6387 17.4125 26.6834 18.0569 27.3277L23.8785 33.1493H13.6499C12.7387 33.1493 12 33.888 12 34.7993V41.399C12 42.3103 12.7387 43.049 13.6499 43.049H23.5496C23.5496 35.3035 29.8286 29.0245 37.5741 29.0245C45.3196 29.0245 51.5986 35.3035 51.5986 43.049H61.4982C62.4094 43.049 63.1481 42.3103 63.1481 41.399V34.7993C63.1481 33.888 62.4094 33.1493 61.4982 33.1493H51.2858L57.1074 27.3277C57.7518 26.6833 57.7518 25.6387 57.1074 24.9943L52.4407 20.3276C51.7964 19.6832 50.7517 19.6832 50.1073 20.3276L42.976 27.4589C42.8259 27.4069 42.6752 27.3571 42.5239 27.3096V16.6499C42.5239 15.7387 41.7852 15 40.8739 15H34.2742Z" fill="black"/>
</svg>
