<svg width="75" height="75" viewBox="0 0 75 75" fill="none" xmlns="http://www.w3.org/2000/svg">
<path d="M36.7307 33.2693C36.4013 30.6093 34.6533 28.4813 31.2587 28.4813C26.6227 28.4813 24.824 32.104 24.824 37.8547C24.824 43.0733 26.04 47.076 31.4613 47.076C35.5653 47.076 37.3893 44.2893 37.3893 41.072C37.3893 37.2467 35.16 34.9413 31.6133 34.9413C29.2067 34.9413 27.0787 36.132 26.3947 38.2093C26.268 32.18 28.0667 29.976 31.2587 29.976C33.5387 29.976 34.7293 31.2173 35.084 33.2693H36.7307ZM31.284 36.4613C34.096 36.4613 35.6667 38.2093 35.6667 41.148C35.6667 43.884 33.9947 45.5813 31.3853 45.5813C28.092 45.5813 26.6227 43.352 26.6227 40.7933C26.6227 37.804 29.0293 36.4613 31.284 36.4613Z" fill="black"/>
<path d="M36.7307 33.2693V33.7327H37.255L37.1906 33.2124L36.7307 33.2693ZM26.3947 38.2093L25.9314 38.2191L26.8348 38.3543L26.3947 38.2093ZM35.084 33.2693L34.6274 33.3483L34.6938 33.7327H35.084V33.2693ZM37.1906 33.2124C37.0157 31.8003 36.4599 30.4965 35.4647 29.5432C34.4643 28.5849 33.0583 28.0179 31.2587 28.0179V28.9447C32.8537 28.9447 34.019 29.4418 34.8236 30.2125C35.6334 30.9882 36.1163 32.0784 36.2708 33.3263L37.1906 33.2124ZM31.2587 28.0179C28.7969 28.0179 27.0332 28.9927 25.9114 30.7635C24.8126 32.4978 24.3606 34.9463 24.3606 37.8547H25.2874C25.2874 35.0124 25.7347 32.7742 26.6943 31.2595C27.6308 29.7813 29.0845 28.9447 31.2587 28.9447V28.0179ZM24.3606 37.8547C24.3606 40.4797 24.6623 42.8927 25.7112 44.659C26.7894 46.4744 28.6143 47.5394 31.4613 47.5394V46.6126C28.8871 46.6126 27.3933 45.6762 26.5081 44.1857C25.5937 42.646 25.2874 40.4483 25.2874 37.8547H24.3606ZM31.4613 47.5394C33.6257 47.5394 35.2421 46.8001 36.3119 45.587C37.3733 44.3834 37.8527 42.7635 37.8527 41.072H36.9259C36.9259 42.5979 36.4934 43.9799 35.6168 44.974C34.7485 45.9586 33.401 46.6126 31.4613 46.6126V47.5394ZM37.8527 41.072C37.8527 39.0703 37.2682 37.4131 36.1675 36.2532C35.0642 35.0905 33.49 34.4779 31.6133 34.4779V35.4047C33.2834 35.4047 34.5972 35.9448 35.4952 36.8912C36.3958 37.8402 36.9259 39.2484 36.9259 41.072H37.8527ZM31.6133 34.4779C29.0716 34.4779 26.7193 35.7418 25.9545 38.0644L26.8348 38.3543C27.4381 36.5222 29.3417 35.4047 31.6133 35.4047V34.4779ZM26.858 38.1996C26.7952 35.2137 27.2148 33.2685 27.9728 32.081C28.7035 30.9363 29.7866 30.4394 31.2587 30.4394V29.5126C29.5388 29.5126 28.1265 30.1177 27.1916 31.5823C26.2839 33.0042 25.8674 35.1757 25.9314 38.2191L26.858 38.1996ZM31.2587 30.4394C32.3121 30.4394 33.0596 30.7242 33.5826 31.1969C34.11 31.6738 34.4616 32.3895 34.6274 33.3483L35.5406 33.1904C35.3517 32.0971 34.9306 31.1662 34.2041 30.5094C33.473 29.8485 32.4852 29.5126 31.2587 29.5126V30.4394ZM35.084 33.7327H36.7307V32.8059H35.084V33.7327ZM31.284 36.9247C32.5914 36.9247 33.552 37.3282 34.1897 38.0174C34.8322 38.7118 35.2033 39.7575 35.2033 41.148H36.1301C36.1301 39.5998 35.7158 38.3022 34.87 37.388C34.0193 36.4685 32.7886 35.9979 31.284 35.9979V36.9247ZM35.2033 41.148C35.2033 42.4212 34.8158 43.4049 34.172 44.0678C33.5296 44.7294 32.5871 45.1179 31.3853 45.1179V46.0447C32.7929 46.0447 33.9911 45.5846 34.837 44.7135C35.6815 43.8438 36.1301 42.6108 36.1301 41.148H35.2033ZM31.3853 45.1179C29.8505 45.1179 28.7937 44.6028 28.1155 43.8391C27.4292 43.0663 27.0861 41.9885 27.0861 40.7933H26.1593C26.1593 42.1568 26.5508 43.473 27.4225 44.4546C28.3023 45.4452 29.6268 46.0447 31.3853 46.0447V45.1179ZM27.0861 40.7933C27.0861 39.438 27.6249 38.4884 28.398 37.8677C29.1844 37.2363 30.2414 36.9247 31.284 36.9247V35.9979C30.0719 35.9979 28.7983 36.3577 27.8177 37.145C26.8238 37.943 26.1593 39.1593 26.1593 40.7933H27.0861Z" fill="black"/>
<path d="M46.0678 33.2371H52.7615" stroke="black" stroke-width="1.85366" stroke-linecap="round"/>
<path d="M48.8225 37.6267C48.8225 40.1043 47.0985 41.8875 45.2311 41.8875C43.3637 41.8875 41.6396 40.1043 41.6396 37.6267C41.6396 35.1491 43.3637 33.3659 45.2311 33.3659C47.0985 33.3659 48.8225 35.1491 48.8225 37.6267Z" stroke="black" stroke-width="1.85366"/>
<rect x="-0.125131" y="37.0767" width="54.0255" height="54.0255" rx="9.25" transform="rotate(-45 -0.125131 37.0767)" stroke="black" stroke-width="1.5"/>
</svg>
