<svg width="75" height="75" viewBox="0 0 75 75" fill="none" xmlns="http://www.w3.org/2000/svg">
<path d="M26.5 54H31.5" stroke="black" stroke-width="1.5" stroke-linecap="round"/>
<path d="M43.5 54H48.5" stroke="black" stroke-width="1.5" stroke-linecap="round"/>
<rect x="13.75" y="50.75" width="12.5" height="6.5" rx="1.25" stroke="black" stroke-width="1.5"/>
<rect x="31.75" y="50.75" width="11.5" height="6.5" rx="1.25" stroke="black" stroke-width="1.5"/>
<rect x="48.75" y="50.75" width="12.5" height="6.5" rx="1.25" stroke="black" stroke-width="1.5"/>
<path d="M34.2742 17C33.363 17 32.6242 17.7387 32.6242 18.6499V29.3096C32.4769 29.3559 32.3302 29.4043 32.1842 29.4548L25.057 22.3276C24.4126 21.6833 23.3679 21.6833 22.7236 22.3276L18.0569 26.9943C17.4125 27.6387 17.4125 28.6834 18.0569 29.3277L23.8785 35.1493H13.6499C12.7387 35.1493 12 35.888 12 36.7993V43.399C12 44.3103 12.7387 45.049 13.6499 45.049H23.5496C23.5496 37.3035 29.8286 31.0245 37.5741 31.0245C45.3196 31.0245 51.5986 37.3035 51.5986 45.049H61.4982C62.4094 45.049 63.1481 44.3103 63.1481 43.399V36.7993C63.1481 35.888 62.4094 35.1493 61.4982 35.1493H51.2858L57.1074 29.3277C57.7518 28.6833 57.7518 27.6387 57.1074 26.9943L52.4407 22.3276C51.7964 21.6832 50.7517 21.6832 50.1073 22.3276L42.976 29.4589C42.8259 29.4069 42.6752 29.3571 42.5239 29.3096V18.6499C42.5239 17.7387 41.7852 17 40.8739 17H34.2742Z" fill="black"/>
</svg>
