<svg width="75" height="75" viewBox="0 0 75 75" fill="none" xmlns="http://www.w3.org/2000/svg">
<path fill-rule="evenodd" clip-rule="evenodd" d="M38.633 12C39.7196 12 40.6 12.8804 40.6 13.967V13.9685C40.6 14.8628 41.2138 15.6317 42.0492 15.9618C42.1809 16.0143 42.3116 16.0691 42.4414 16.1261C43.266 16.4841 44.2425 16.3756 44.878 15.7401C45.2468 15.3716 45.7469 15.1645 46.2683 15.1645C46.7898 15.1645 47.2899 15.3716 47.6587 15.7401L49.2614 17.3428C49.63 17.7117 49.837 18.2118 49.837 18.7332C49.837 19.2546 49.63 19.7547 49.2614 20.1236C48.6274 20.7591 48.5189 21.7371 48.8754 22.5601C48.932 22.6899 48.9863 22.8206 49.0382 22.9523C49.3683 23.7877 50.1371 24.4016 51.033 24.4016C52.1196 24.4016 53 25.2819 53 26.3685V28.633C53 29.7196 52.1196 30.6 51.033 30.6C50.1371 30.6 49.3683 31.2138 49.0397 32.0492C48.987 32.181 48.9328 32.3127 48.8754 32.4414C48.5174 33.266 48.6259 34.2425 49.2614 34.878C49.63 35.2468 49.837 35.7469 49.837 36.2683C49.837 36.7898 49.63 37.2899 49.2614 37.6587L47.6587 39.2614C47.476 39.4441 47.2592 39.5891 47.0205 39.688C46.7818 39.7869 46.5259 39.8378 46.2676 39.8378C46.0092 39.8378 45.7534 39.7869 45.5147 39.688C45.276 39.5891 45.0591 39.4441 44.8764 39.2614C44.2425 38.6274 43.2644 38.5174 42.4414 38.877C42.3127 38.9328 42.181 38.987 42.0492 39.0382C41.2138 39.3683 40.6 40.1371 40.6 41.0331C40.6 42.1196 39.7196 43 38.633 43H36.3669C35.2804 43 34.4 42.1196 34.4 41.0331C34.4 40.1371 33.7862 39.3683 32.9507 39.0397C32.819 38.987 32.6872 38.9328 32.5586 38.8755C31.734 38.5174 30.7575 38.6259 30.122 39.2614C29.7532 39.63 29.2531 39.837 28.7316 39.837C28.2102 39.837 27.7101 39.63 27.3413 39.2614L25.7386 37.6587C25.37 37.2899 25.163 36.7898 25.163 36.2683C25.163 35.7469 25.37 35.2468 25.7386 34.878C26.3725 34.2425 26.481 33.2644 26.123 32.4414L26.1112 32.4135C26.0607 32.2937 26.0091 32.1715 25.9602 32.0492C25.6316 31.2138 24.8628 30.6 23.9669 30.6C22.8804 30.6 22 29.7196 22 28.633V26.367C22 25.2804 22.8804 24.4 23.9669 24.4C24.8628 24.4 25.6316 23.7862 25.9602 22.9507C26.0122 22.8191 26.0665 22.6884 26.123 22.5586C26.4826 21.734 26.3741 20.7575 25.7386 20.122C25.37 19.7532 25.163 19.2531 25.163 18.7316C25.163 18.2102 25.37 17.7101 25.7386 17.3413L27.3413 15.7386C27.7101 15.37 28.2102 15.163 28.7316 15.163C29.2531 15.163 29.7532 15.37 30.122 15.7386C30.7575 16.3726 31.7355 16.481 32.5586 16.1245C32.6872 16.0687 32.819 16.0129 32.9507 15.9602C33.7862 15.6316 34.4 14.8628 34.4 13.967C34.4 12.8804 35.2804 12 36.3685 12H38.633ZM43.5104 33.5104C45.1045 31.9163 46 29.7543 46 27.5C46 25.2457 45.1045 23.0837 43.5104 21.4896C41.9163 19.8955 39.7543 19 37.5 19C35.2457 19 33.0837 19.8955 31.4896 21.4896C29.8955 23.0837 29 25.2457 29 27.5C29 29.7543 29.8955 31.9163 31.4896 33.5104C33.0837 35.1045 35.2457 36 37.5 36C39.7543 36 41.9163 35.1045 43.5104 33.5104Z" fill="black"/>
<path d="M42.0492 15.9618L42.4196 15.0329L42.4168 15.0318L42.0492 15.9618ZM42.4414 16.1261L42.039 17.0416L42.0431 17.0434L42.4414 16.1261ZM44.878 15.7401L44.1711 15.0328L44.1709 15.033L44.878 15.7401ZM47.6587 15.7401L48.3658 15.033L48.3655 15.0328L47.6587 15.7401ZM49.2614 17.3428L49.9687 16.636L49.9685 16.6357L49.2614 17.3428ZM49.2614 20.1236L48.554 19.4167L48.5534 19.4173L49.2614 20.1236ZM48.8754 22.5601L47.9578 22.9576L47.9587 22.9597L48.8754 22.5601ZM49.0382 22.9523L48.1079 23.3192L48.1082 23.3198L49.0382 22.9523ZM49.0397 32.0492L49.9682 32.4206L49.9703 32.4153L49.0397 32.0492ZM48.8754 32.4414L47.962 32.0342L47.9582 32.0431L48.8754 32.4414ZM49.2614 34.878L49.9687 34.1711L49.9685 34.1709L49.2614 34.878ZM49.2614 37.6587L49.9685 38.3658L49.9687 38.3656L49.2614 37.6587ZM47.6587 39.2614L46.9516 38.5543L46.9514 38.5544L47.6587 39.2614ZM44.8764 39.2614L45.5837 38.5544L45.5835 38.5543L44.8764 39.2614ZM42.4414 38.877L42.8393 39.7944L42.8418 39.7934L42.4414 38.877ZM42.0492 39.0382L41.6873 38.106L41.6817 38.1082L42.0492 39.0382ZM32.9507 39.0397L32.5793 39.9682L32.5847 39.9704L32.9507 39.0397ZM32.5586 38.8755L32.9658 37.962L32.9569 37.9582L32.5586 38.8755ZM30.122 39.2614L30.8289 39.9688L30.8291 39.9685L30.122 39.2614ZM27.3413 39.2614L26.6342 39.9685L26.6344 39.9688L27.3413 39.2614ZM25.7386 37.6587L25.0312 38.3656L25.0315 38.3658L25.7386 37.6587ZM25.7386 34.878L26.446 35.5849L26.4466 35.5842L25.7386 34.878ZM26.123 32.4414L25.2015 32.83L25.206 32.8403L26.123 32.4414ZM26.1112 32.4135L27.0326 32.0248L27.0326 32.0248L26.1112 32.4135ZM25.9602 32.0492L25.0296 32.4153L25.0318 32.4206L25.9602 32.0492ZM25.9602 22.9507L25.0302 22.5834L25.0296 22.5847L25.9602 22.9507ZM26.123 22.5586L25.2064 22.1589L25.2061 22.1594L26.123 22.5586ZM25.7386 20.122L25.0312 20.8289L25.0315 20.8291L25.7386 20.122ZM25.7386 17.3413L25.0315 16.6342L25.0312 16.6344L25.7386 17.3413ZM27.3413 15.7386L26.6344 15.0312L26.6342 15.0315L27.3413 15.7386ZM30.122 15.7386L29.4151 16.446L29.4158 16.4466L30.122 15.7386ZM32.5586 16.1245L32.9561 17.0422L32.9565 17.042L32.5586 16.1245ZM32.9507 15.9602L32.5847 15.0296L32.5794 15.0318L32.9507 15.9602ZM43.5104 21.4896L44.2175 20.7825L43.5104 21.4896ZM31.4896 21.4896L30.7825 20.7825L31.4896 21.4896ZM31.4896 33.5104L30.7825 34.2175L31.4896 33.5104ZM41.6 13.967C41.6 12.3281 40.2719 11 38.633 11V13C39.1673 13 39.6 13.4327 39.6 13.967H41.6ZM41.6 13.9685V13.967H39.6V13.9685H41.6ZM42.4168 15.0318C41.8944 14.8254 41.6 14.3834 41.6 13.9685H39.6C39.6 15.3423 40.5331 16.4379 41.6817 16.8918L42.4168 15.0318ZM42.8437 15.2106C42.7034 15.1489 42.562 15.0897 42.4196 15.0329L41.6789 16.8907C41.7998 16.9389 41.9199 16.9892 42.039 17.0416L42.8437 15.2106ZM44.1709 15.033C43.8743 15.3296 43.3548 15.4325 42.8397 15.2088L42.0431 17.0434C43.1772 17.5358 44.6107 17.4217 45.5851 16.4473L44.1709 15.033ZM46.2683 14.1645C45.4818 14.1645 44.7275 14.4768 44.1711 15.0328L45.5848 16.4475C45.7662 16.2663 46.012 16.1645 46.2683 16.1645V14.1645ZM48.3655 15.0328C47.8092 14.4768 47.0549 14.1645 46.2683 14.1645V16.1645C46.5247 16.1645 46.7705 16.2663 46.9518 16.4475L48.3655 15.0328ZM49.9685 16.6357L48.3658 15.033L46.9516 16.4473L48.5543 18.05L49.9685 16.6357ZM50.837 18.7332C50.837 17.9467 50.5247 17.1923 49.9687 16.636L48.554 18.0497C48.7352 18.231 48.837 18.4769 48.837 18.7332H50.837ZM49.9687 20.8304C50.5247 20.2741 50.837 19.5197 50.837 18.7332H48.837C48.837 18.9895 48.7352 19.2354 48.554 19.4167L49.9687 20.8304ZM49.7931 22.1627C49.5704 21.6487 49.6732 21.1267 49.9694 20.8298L48.5534 19.4173C47.5817 20.3914 47.4674 21.8255 47.9578 22.9576L49.7931 22.1627ZM49.9684 22.5854C49.9122 22.4427 49.8534 22.3011 49.7921 22.1606L47.9587 22.9597C48.0106 23.0787 48.0603 23.1985 48.1079 23.3192L49.9684 22.5854ZM51.033 23.4016C50.6162 23.4016 50.1744 23.1067 49.9682 22.5848L48.1082 23.3198C48.5622 24.4688 49.658 25.4016 51.033 25.4016V23.4016ZM54 26.3685C54 24.7297 52.6719 23.4016 51.033 23.4016V25.4016C51.5673 25.4016 52 25.8342 52 26.3685H54ZM54 28.633V26.3685H52V28.633H54ZM51.033 31.6C52.6719 31.6 54 30.2719 54 28.633H52C52 29.1673 51.5673 29.6 51.033 29.6V31.6ZM49.9703 32.4153C50.175 31.895 50.6161 31.6 51.033 31.6V29.6C49.6582 29.6 48.5617 30.5326 48.1091 31.6832L49.9703 32.4153ZM49.7888 32.8486C49.8537 32.703 49.9133 32.5578 49.9682 32.4206L48.1113 31.6779C48.0607 31.8041 48.0119 31.9225 47.9621 32.0342L49.7888 32.8486ZM49.9685 34.1709C49.6719 33.8743 49.569 33.3548 49.7927 32.8397L47.9582 32.0431C47.4657 33.1772 47.5799 34.6107 48.5543 35.5851L49.9685 34.1709ZM50.837 36.2683C50.837 35.4818 50.5247 34.7275 49.9687 34.1711L48.554 35.5849C48.7352 35.7662 48.837 36.012 48.837 36.2683H50.837ZM49.9687 38.3656C50.5247 37.8092 50.837 37.0549 50.837 36.2683H48.837C48.837 36.5247 48.7352 36.7705 48.554 36.9518L49.9687 38.3656ZM48.3658 39.9685L49.9685 38.3658L48.5543 36.9516L46.9516 38.5543L48.3658 39.9685ZM47.4032 40.6118C47.7633 40.4626 48.0904 40.244 48.3659 39.9684L46.9514 38.5544C46.8616 38.6443 46.755 38.7155 46.6377 38.7641L47.4032 40.6118ZM46.2676 40.8378C46.6573 40.8378 47.0432 40.761 47.4032 40.6118L46.6377 38.7641C46.5203 38.8128 46.3946 38.8378 46.2676 38.8378V40.8378ZM45.1319 40.6118C45.4919 40.761 45.8778 40.8378 46.2676 40.8378V38.8378C46.1406 38.8378 46.0148 38.8128 45.8974 38.7641L45.1319 40.6118ZM44.1692 39.9684C44.4447 40.244 44.7718 40.4626 45.1319 40.6118L45.8974 38.7641C45.7801 38.7155 45.6735 38.6443 45.5837 38.5544L44.1692 39.9684ZM42.8418 39.7934C43.3531 39.5699 43.8737 39.6729 44.1693 39.9685L45.5835 38.5543C44.6113 37.582 43.1757 37.4649 42.041 37.9606L42.8418 39.7934ZM42.4112 39.9704C42.5555 39.9144 42.6992 39.8552 42.8393 39.7944L42.0435 37.9596C41.9263 38.0104 41.8065 38.0597 41.6873 38.106L42.4112 39.9704ZM41.6 41.0331C41.6 40.6162 41.8949 40.1745 42.4168 39.9682L41.6817 38.1082C40.5327 38.5622 39.6 39.6581 39.6 41.0331H41.6ZM38.633 44C40.2719 44 41.6 42.6719 41.6 41.0331H39.6C39.6 41.5673 39.1673 42 38.633 42V44ZM36.3669 44H38.633V42H36.3669V44ZM33.4 41.0331C33.4 42.6719 34.7281 44 36.3669 44V42C35.8327 42 35.4 41.5673 35.4 41.0331H33.4ZM32.5847 39.9704C33.105 40.175 33.4 40.6161 33.4 41.0331H35.4C35.4 39.6582 34.4673 38.5617 33.3168 38.1091L32.5847 39.9704ZM32.1514 39.7888C32.297 39.8537 32.4421 39.9133 32.5794 39.9682L33.3221 38.1113C33.1959 38.0608 33.0775 38.0119 32.9658 37.9621L32.1514 39.7888ZM30.8291 39.9685C31.1257 39.6719 31.6452 39.569 32.1603 39.7927L32.9569 37.9582C31.8228 37.4658 30.3893 37.5799 29.4149 38.5543L30.8291 39.9685ZM28.7316 40.837C29.5182 40.837 30.2725 40.5247 30.8289 39.9688L29.4151 38.554C29.2338 38.7352 28.988 38.837 28.7316 38.837V40.837ZM26.6344 39.9688C27.1908 40.5247 27.9451 40.837 28.7316 40.837V38.837C28.4753 38.837 28.2295 38.7352 28.0482 38.554L26.6344 39.9688ZM25.0315 38.3658L26.6342 39.9685L28.0484 38.5543L26.4457 36.9516L25.0315 38.3658ZM24.163 36.2683C24.163 37.0549 24.4753 37.8092 25.0312 38.3656L26.446 36.9518C26.2648 36.7705 26.163 36.5247 26.163 36.2683H24.163ZM25.0312 34.1711C24.4753 34.7275 24.163 35.4818 24.163 36.2683H26.163C26.163 36.012 26.2648 35.7662 26.446 35.5849L25.0312 34.1711ZM25.206 32.8403C25.4292 33.3534 25.3267 33.875 25.0306 34.1718L26.4466 35.5842C27.4184 34.61 27.5329 33.1754 27.04 32.0425L25.206 32.8403ZM25.1898 32.8021L25.2016 32.83L27.0444 32.0528L27.0326 32.0248L25.1898 32.8021ZM25.0318 32.4206C25.0847 32.553 25.1399 32.6838 25.1898 32.8021L27.0326 32.0248C26.9815 31.9036 26.9336 31.79 26.8887 31.6779L25.0318 32.4206ZM23.9669 31.6C24.3839 31.6 24.825 31.895 25.0296 32.4153L26.8909 31.6832C26.4383 30.5326 25.3418 29.6 23.9669 29.6V31.6ZM21 28.633C21 30.2719 22.3281 31.6 23.9669 31.6V29.6C23.4327 29.6 23 29.1673 23 28.633H21ZM21 26.367V28.633H23V26.367H21ZM23.9669 23.4C22.3281 23.4 21 24.7281 21 26.367H23C23 25.8327 23.4327 25.4 23.9669 25.4V23.4ZM25.0296 22.5847C24.825 23.105 24.3839 23.4 23.9669 23.4V25.4C25.3418 25.4 26.4383 24.4674 26.8909 23.3168L25.0296 22.5847ZM25.2061 22.1594C25.145 22.2997 25.0864 22.4411 25.0302 22.5834L26.8903 23.3181C26.9381 23.1971 26.988 23.077 27.0399 22.9578L25.2061 22.1594ZM25.0315 20.8291C25.328 21.1256 25.4306 21.6446 25.2064 22.1589L27.0396 22.9583C27.5345 21.8234 27.4202 20.3894 26.4457 19.4149L25.0315 20.8291ZM24.163 18.7316C24.163 19.5182 24.4753 20.2725 25.0312 20.8289L26.446 19.4151C26.2648 19.2338 26.163 18.988 26.163 18.7316H24.163ZM25.0312 16.6344C24.4753 17.1908 24.163 17.9451 24.163 18.7316H26.163C26.163 18.4753 26.2648 18.2295 26.446 18.0482L25.0312 16.6344ZM26.6342 15.0315L25.0315 16.6342L26.4457 18.0484L28.0484 16.4457L26.6342 15.0315ZM28.7316 14.163C27.9451 14.163 27.1908 14.4753 26.6344 15.0312L28.0482 16.446C28.2295 16.2648 28.4753 16.163 28.7316 16.163V14.163ZM30.8289 15.0312C30.2725 14.4753 29.5182 14.163 28.7316 14.163V16.163C28.988 16.163 29.2338 16.2648 29.4151 16.446L30.8289 15.0312ZM32.1611 15.2069C31.6472 15.4296 31.1251 15.3268 30.8282 15.0306L29.4158 16.4466C30.3899 17.4183 31.8239 17.5325 32.9561 17.0422L32.1611 15.2069ZM32.5794 15.0318C32.4355 15.0893 32.2943 15.1492 32.1607 15.2071L32.9565 17.042C33.0802 16.9883 33.2025 16.9366 33.3221 16.8887L32.5794 15.0318ZM33.4 13.967C33.4 14.3839 33.105 14.825 32.5847 15.0296L33.3168 16.8909C34.4673 16.4383 35.4 15.3418 35.4 13.967H33.4ZM36.3685 11C34.7286 11 33.4 12.3276 33.4 13.967H35.4C35.4 13.4332 35.8322 13 36.3685 13V11ZM38.633 11H36.3685V13H38.633V11ZM45 27.5C45 29.4891 44.2098 31.3968 42.8033 32.8033L44.2175 34.2175C45.9991 32.4359 47 30.0196 47 27.5H45ZM42.8033 22.1967C44.2098 23.6032 45 25.5109 45 27.5H47C47 24.9804 45.9991 22.5641 44.2175 20.7825L42.8033 22.1967ZM37.5 20C39.4891 20 41.3968 20.7902 42.8033 22.1967L44.2175 20.7825C42.4359 19.0009 40.0196 18 37.5 18V20ZM32.1967 22.1967C33.6032 20.7902 35.5109 20 37.5 20V18C34.9804 18 32.5641 19.0009 30.7825 20.7825L32.1967 22.1967ZM30 27.5C30 25.5109 30.7902 23.6032 32.1967 22.1967L30.7825 20.7825C29.0009 22.5641 28 24.9804 28 27.5H30ZM32.1967 32.8033C30.7902 31.3968 30 29.4891 30 27.5H28C28 30.0196 29.0009 32.4359 30.7825 34.2175L32.1967 32.8033ZM37.5 35C35.5109 35 33.6032 34.2098 32.1967 32.8033L30.7825 34.2175C32.5641 35.9991 34.9804 37 37.5 37V35ZM42.8033 32.8033C41.3968 34.2098 39.4891 35 37.5 35V37C40.0196 37 42.4359 35.9991 44.2175 34.2175L42.8033 32.8033Z" fill="black"/>
<path d="M30.8989 47.6862L20.7221 42.2361C20.4787 42.1057 20.1757 42.1973 20.0453 42.4408L12.7061 56.1447C12.4795 56.5679 12.9215 57.0362 13.3571 56.8344L20.8601 53.3585C21.1619 53.2187 21.5135 53.407 21.5644 53.7357L22.8295 61.9074C22.9029 62.3819 23.5377 62.4902 23.7644 62.067L31.1036 48.3631C31.2339 48.1196 31.1423 47.8166 30.8989 47.6862Z" fill="black" stroke="black" stroke-linecap="round"/>
<path d="M55.6178 42.2361L45.4409 47.686C45.1975 47.8164 45.1058 48.1194 45.2362 48.3628L52.5751 62.067C52.8017 62.4902 53.4365 62.3818 53.5099 61.9074L54.7752 53.7357C54.8261 53.407 55.1777 53.2187 55.4795 53.3585L62.9825 56.8347C63.4181 57.0365 63.8601 56.5681 63.6335 56.1449L56.2946 42.4408C56.1642 42.1974 55.8612 42.1057 55.6178 42.2361Z" fill="black" stroke="black" stroke-linecap="round"/>
<path d="M35 27.25L37.25 29.5L41 25" stroke="black" stroke-width="1.5" stroke-linecap="round" stroke-linejoin="round"/>
</svg>
